<?xml version="1.0" standalone="no"?>
<!DOCTYPE svg PUBLIC "-//W3C//DTD SVG 20010904//EN"
 "http://www.w3.org/TR/2001/REC-SVG-20010904/DTD/svg10.dtd">
<svg version="1.0" xmlns="http://www.w3.org/2000/svg"
 width="1280.000000pt" height="640.000000pt" viewBox="0 0 1280.000000 640.000000"
 preserveAspectRatio="xMidYMid meet">

<g transform="translate(0.000000,640.000000) scale(0.100000,-0.100000)"
fill="#ffffff" stroke="none">
<path d="M6235 6204 c-409 -31 -692 -92 -1020 -221 -385 -151 -770 -396 -1059
-674 l-91 -87 40 -41 c21 -23 44 -41 50 -41 6 0 35 25 65 56 135 138 379 325
572 440 422 250 853 389 1351 435 178 16 532 6 709 -20 652 -96 1222 -370
1708 -820 l97 -89 41 35 c23 20 42 41 42 47 0 6 -42 50 -93 97 -605 562 -1357
868 -2172 883 -104 2 -212 2 -240 0z"/>
<path d="M5837 5824 c-142 -29 -265 -58 -273 -65 -8 -6 -14 -22 -14 -34 0 -12
27 -152 60 -311 65 -318 77 -347 154 -391 68 -37 107 -37 307 2 101 20 186 38
188 40 6 6 -22 145 -29 145 -4 0 -74 -13 -155 -30 -219 -44 -235 -42 -260 42
-29 97 -38 90 162 132 97 20 178 38 180 40 2 2 -2 33 -8 70 -11 56 -15 66 -33
66 -12 0 -94 -15 -184 -34 -89 -18 -164 -31 -166 -27 -8 12 -39 171 -35 175 2
2 91 22 197 44 106 22 195 42 197 44 2 2 -4 36 -13 74 l-17 71 -258 -53z"/>
<path d="M6934 5781 c-47 -21 -87 -69 -108 -128 -37 -105 -148 -555 -142 -578
5 -20 18 -28 69 -44 34 -10 65 -16 68 -13 4 4 23 76 44 160 21 84 41 155 46
157 4 3 85 -15 180 -40 94 -26 175 -43 179 -38 4 4 14 36 22 70 l16 63 -47 13
c-25 8 -106 29 -179 48 l-133 34 6 35 c4 19 15 54 25 77 27 62 47 63 220 18
200 -53 190 -54 211 28 12 50 14 69 6 72 -7 2 -82 22 -168 44 -176 46 -251 51
-315 22z"/>
<path d="M4838 5442 c-31 -26 -57 -49 -57 -52 0 -3 70 -90 155 -195 86 -104
165 -210 176 -234 38 -84 7 -172 -81 -231 -78 -52 -154 -50 -222 7 -18 15 -99
110 -181 210 -82 101 -154 183 -159 183 -11 0 -118 -82 -118 -90 -2 -12 321
-400 364 -438 63 -56 127 -76 224 -70 92 6 160 37 236 109 118 112 150 260 85
394 -18 37 -344 448 -358 452 -4 1 -33 -19 -64 -45z"/>
<path d="M7754 5094 c-192 -124 -355 -232 -363 -239 -11 -11 -1 -20 59 -53
l72 -40 252 164 c138 90 252 159 254 155 3 -9 -64 -251 -72 -259 -3 -2 -18 5
-34 17 -17 12 -33 21 -37 21 -8 0 -125 -79 -125 -85 0 -3 34 -30 75 -61 42
-32 74 -62 72 -68 -2 -6 -12 -42 -22 -80 l-19 -69 64 -58 c36 -32 66 -56 68
-55 12 13 241 846 237 863 -7 28 -72 73 -106 73 -17 0 -146 -77 -375 -226z"/>
<path d="M6180 4853 c-91 -10 -286 -56 -390 -91 -284 -97 -510 -235 -727 -446
-57 -54 -103 -102 -103 -106 0 -4 20 -24 45 -45 l46 -37 112 109 c142 136 266
225 432 307 392 195 787 244 1215 150 317 -70 609 -231 864 -474 l92 -89 44
38 44 38 -36 42 c-51 59 -177 173 -261 234 -268 196 -553 314 -878 361 -99 15
-400 20 -499 9z"/>
<path d="M6275 3870 c-84 -14 -159 -37 -241 -75 -251 -115 -434 -336 -520
-630 -36 -122 -45 -346 -19 -480 17 -90 70 -242 101 -289 l16 -26 250 0 250 0
-60 65 c-185 203 -225 501 -101 754 71 143 195 249 334 286 276 71 552 -114
631 -425 25 -94 22 -263 -5 -363 -49 -186 -168 -340 -317 -413 l-79 -39 -570
0 -570 0 -99 28 c-172 48 -267 111 -372 250 -20 27 -34 50 -32 51 1 2 23 14
48 26 152 77 279 239 325 415 19 76 19 233 0 310 -54 215 -211 384 -427 463
l-73 27 -516 0 -515 0 -36 -24 c-19 -13 -46 -40 -59 -59 l-24 -36 -3 -785 c-2
-540 0 -798 8 -823 23 -82 92 -131 180 -131 84 0 142 38 175 115 12 30 15 80
15 243 l0 205 234 0 234 0 126 -169 c69 -93 151 -192 183 -221 115 -103 255
-168 455 -212 101 -23 114 -23 733 -23 l630 0 88 28 c158 49 257 108 376 221
93 90 150 169 206 287 139 295 137 632 -5 924 -127 263 -349 445 -621 510 -81
19 -256 27 -334 15z m-1536 -475 c63 -35 105 -82 126 -144 45 -131 -17 -274
-145 -335 -43 -20 -62 -21 -397 -24 l-353 -3 0 271 0 271 358 -3 357 -3 54
-30z"/>
<path d="M12217 3865 c-41 -14 -122 -82 -212 -176 -311 -327 -515 -769 -515
-1116 0 -277 114 -474 333 -573 71 -32 207 -60 292 -60 149 0 325 66 429 160
198 182 252 497 128 750 -71 145 -219 262 -387 305 -79 21 -254 21 -320 1 -27
-8 -51 -13 -53 -11 -9 9 105 179 179 268 42 51 121 136 177 189 114 110 127
138 97 202 -27 57 -88 82 -148 61z m-12 -936 c135 -23 237 -112 271 -235 25
-95 17 -233 -19 -306 -59 -120 -172 -195 -309 -205 -223 -17 -375 100 -408
313 -45 288 167 485 465 433z"/>
<path d="M7930 3854 c-36 -7 -103 -32 -150 -55 -186 -92 -300 -265 -325 -494
-12 -108 39 -175 133 -175 34 0 49 6 78 33 34 31 38 40 51 128 17 117 48 184
114 243 74 67 142 89 264 89 81 0 111 -4 159 -23 116 -45 193 -146 217 -283
13 -81 7 -134 -26 -204 -44 -95 -98 -140 -442 -365 -258 -168 -336 -224 -379
-272 -96 -106 -155 -259 -170 -440 l-7 -86 574 0 c316 0 591 3 612 7 81 13
126 98 91 170 -36 74 -31 73 -541 73 -249 0 -453 4 -453 8 0 22 64 101 107
133 26 20 165 112 308 204 143 93 285 188 317 212 156 122 268 327 268 495 0
305 -184 543 -465 603 -87 18 -249 18 -335 -1z"/>
<path d="M9530 3854 c-343 -73 -619 -348 -711 -709 -33 -127 -33 -341 -1 -468
29 -117 74 -222 132 -311 274 -420 799 -547 1222 -295 156 92 322 290 389 463
54 140 72 250 66 411 -6 157 -30 261 -92 392 -124 265 -367 459 -645 518 -88
19 -272 18 -360 -1z m305 -239 c223 -47 421 -230 500 -464 127 -374 -59 -792
-411 -928 -92 -35 -266 -44 -364 -18 -179 46 -342 183 -429 360 -61 122 -75
189 -75 340 -1 152 14 220 74 340 139 282 420 430 705 370z"/>
<path d="M185 3801 c-48 -22 -79 -54 -100 -103 -13 -33 -15 -135 -15 -815 0
-735 1 -780 19 -818 22 -48 54 -79 103 -100 32 -13 119 -15 645 -15 596 0 607
0 650 21 115 55 144 200 60 296 -57 64 -45 63 -597 63 l-500 0 0 180 0 180
408 0 c431 0 462 3 521 47 62 47 89 151 57 226 -17 43 -76 93 -123 106 -24 7
-194 11 -450 11 l-413 0 0 180 0 180 500 0 c546 0 529 -2 593 58 87 82 56 252
-57 303 -39 17 -77 19 -651 19 -572 0 -612 -2 -650 -19z"/>
<path d="M1880 3804 c-45 -20 -68 -41 -91 -86 -18 -35 -19 -67 -19 -563 0
-447 2 -537 16 -597 67 -296 286 -526 575 -604 88 -24 271 -24 359 -1 76 20
191 73 253 116 150 103 268 278 319 474 20 77 21 112 25 574 3 341 1 509 -6
545 -27 125 -145 190 -258 143 -48 -20 -71 -41 -93 -86 -17 -33 -19 -76 -22
-550 -3 -504 -4 -515 -26 -577 -44 -122 -116 -205 -222 -256 -57 -27 -75 -31
-150 -31 -104 0 -172 28 -251 101 -60 57 -94 113 -120 195 -18 56 -19 99 -19
547 0 321 -4 501 -11 527 -31 114 -153 175 -259 129z"/>
<path d="M10819 3656 c-137 -119 -180 -163 -189 -190 -25 -77 30 -146 117
-146 38 0 50 7 135 81 l93 80 5 -730 c5 -720 5 -730 26 -758 26 -34 90 -59
129 -49 15 4 43 22 62 41 l33 33 0 896 0 896 -117 0 -118 0 -176 -154z"/>
<path d="M7965 1299 c-79 -11 -207 -75 -269 -135 -66 -64 -118 -148 -147 -236
-32 -99 -33 -242 -1 -343 102 -329 460 -491 746 -337 98 52 216 195 216 261 0
30 -43 71 -76 71 -18 0 -37 -11 -58 -36 -100 -115 -123 -136 -175 -161 -48
-24 -68 -28 -141 -28 -76 0 -93 4 -151 32 -240 118 -294 458 -104 648 70 71
130 98 231 103 134 7 233 -42 309 -152 43 -62 78 -82 118 -67 84 32 51 141
-80 261 -70 64 -159 107 -250 120 -77 11 -85 11 -168 -1z"/>
<path d="M3345 1265 l-25 -24 0 -494 0 -494 23 -21 c31 -29 91 -30 115 -2 15
18 18 50 22 233 l5 212 266 3 266 2 23 25 c33 35 31 82 -4 112 -27 23 -29 23
-292 23 l-264 0 0 140 0 140 300 0 c359 0 370 3 370 91 0 18 -10 39 -25 54
l-24 25 -366 0 -366 0 -24 -25z"/>
<path d="M4315 1266 l-25 -25 0 -494 0 -494 23 -21 c32 -30 87 -29 115 1 21
22 22 33 22 175 l0 152 145 0 145 0 62 -87 c149 -210 309 -311 376 -240 40 43
24 109 -31 132 -58 24 -115 73 -162 140 -26 36 -46 67 -44 69 2 2 28 16 57 32
72 38 145 120 172 192 31 82 25 215 -14 290 -37 72 -96 128 -174 165 l-67 32
-287 3 -288 3 -25 -25z m601 -163 c158 -84 148 -297 -15 -360 -38 -15 -79 -18
-246 -18 l-200 0 -3 190 c-1 104 0 196 3 203 4 11 44 13 213 10 190 -3 210 -5
248 -25z"/>
<path d="M5807 1278 c-9 -7 -120 -226 -247 -486 -241 -497 -251 -521 -210
-562 22 -22 70 -26 101 -10 11 6 51 74 89 150 l70 140 261 0 260 0 21 -47 c13
-29 22 -77 26 -131 6 -103 20 -122 87 -122 37 0 47 4 62 27 23 35 22 147 -2
230 -22 77 -362 783 -387 806 -24 20 -106 23 -131 5z m159 -416 c48 -100 85
-184 82 -187 -3 -3 -87 -4 -186 -3 l-181 3 91 193 c50 106 95 189 99 185 4 -5
47 -90 95 -191z"/>
<path d="M6546 1269 l-26 -20 0 -500 c0 -490 0 -499 21 -520 16 -16 30 -19 67
-17 42 3 49 6 64 38 16 31 18 71 18 363 l0 329 251 -339 c139 -186 263 -350
277 -365 21 -23 34 -28 74 -28 86 0 83 -18 86 515 2 313 0 472 -8 497 -19 66
-97 89 -141 42 l-24 -26 -3 -338 -3 -339 -268 358 c-148 197 -276 361 -286
364 -32 13 -72 7 -99 -14z"/>
<path d="M8695 1265 l-25 -24 0 -489 c0 -480 0 -490 21 -516 l20 -26 369 0
369 0 20 26 c28 36 27 79 -4 109 l-24 25 -301 0 -300 0 0 150 0 149 251 3 251
3 24 28 c34 39 31 79 -7 111 l-31 26 -244 0 -244 0 0 145 0 145 295 0 296 0
24 25 c33 33 32 70 -4 106 l-29 29 -352 0 -351 0 -24 -25z"/>
</g>
</svg>
