<?xml version="1.0" standalone="no"?>
<!DOCTYPE svg PUBLIC "-//W3C//DTD SVG 20010904//EN"
 "http://www.w3.org/TR/2001/REC-SVG-20010904/DTD/svg10.dtd">
<svg version="1.0" xmlns="http://www.w3.org/2000/svg"
 width="100.000000pt" height="100.000000pt" viewBox="0 0 100.000000 100.000000"
 preserveAspectRatio="xMidYMid meet">
<metadata>
Created by potrace 1.11, written by Peter Selinger 2001-2013
</metadata>
<g transform="translate(0.000000,100.000000) scale(0.100000,-0.100000)"
fill="#000000" stroke="none">
<path d="M411 886 c-47 -17 -108 -70 -130 -114 -94 -185 74 -409 269 -360 193
48 258 286 114 422 -63 60 -170 82 -253 52z"/>
<path d="M660 435 c0 -7 30 -13 34 -7 3 4 -4 9 -15 9 -10 1 -19 0 -19 -2z"/>
<path d="M467 363 c-13 -13 -7 -33 11 -32 10 0 12 3 5 6 -7 2 -13 9 -13 14 0
6 4 8 9 4 5 -3 12 -1 16 5 7 11 -18 14 -28 3z"/>
<path d="M518 363 c7 -3 16 -2 19 1 4 3 -2 6 -13 5 -11 0 -14 -3 -6 -6z"/>
<path d="M414 344 c-18 -14 -18 -14 6 -3 31 14 36 19 24 19 -6 0 -19 -7 -30
-16z"/>
<path d="M562 349 c9 -5 15 -16 12 -24 -4 -8 -10 -12 -15 -9 -5 3 -6 -2 -2
-12 5 -14 3 -15 -15 -5 -11 6 -27 11 -34 11 -7 -1 1 -7 17 -14 32 -14 55 -5
55 20 0 8 5 14 12 14 6 0 3 7 -8 15 -10 8 -23 14 -29 14 -5 0 -2 -4 7 -10z"/>
<path d="M517 343 c-12 -12 -7 -22 8 -17 8 4 15 10 15 15 0 11 -14 12 -23 2z"/>
<path d="M436 321 c5 -11 3 -13 -9 -8 -10 3 -17 2 -17 -3 0 -6 10 -10 23 -10
18 0 19 -2 7 -10 -9 -6 -10 -10 -3 -10 20 0 23 16 7 36 -9 10 -12 13 -8 5z"/>
<path d="M470 310 c0 -5 5 -10 11 -10 5 0 7 5 4 10 -3 6 -8 10 -11 10 -2 0 -4
-4 -4 -10z"/>
<path d="M290 231 c0 -42 19 -58 54 -45 18 7 23 74 6 74 -5 0 -10 -13 -10 -30
0 -20 -5 -30 -15 -30 -10 0 -15 10 -15 29 0 17 -4 33 -10 36 -6 4 -10 -10 -10
-34z"/>
<path d="M388 262 c-14 -3 -18 -13 -18 -43 0 -39 16 -55 22 -22 3 15 5 15 22
-2 23 -23 103 -26 117 -4 12 19 11 56 -1 64 -38 24 -72 5 -72 -40 0 -25 -8
-31 -21 -18 -4 3 -2 12 4 19 23 28 -10 56 -53 46z m37 -33 c-8 -12 -35 -12
-35 0 0 11 22 20 33 14 4 -2 5 -9 2 -14z m93 -3 c6 -29 -15 -43 -35 -24 -14
14 -14 20 -3 33 16 19 34 15 38 -9z"/>
<path d="M553 254 c-3 -8 -3 -18 1 -21 3 -4 6 -1 6 5 0 7 7 12 15 12 20 0 19
-16 -3 -32 -35 -25 -35 -38 0 -37 24 1 27 3 10 6 l-22 4 22 19 c23 18 23 18
28 -3 8 -31 55 -36 70 -7 24 44 -24 87 -61 54 -13 -11 -18 -12 -21 -3 -6 18
-38 20 -45 3z m120 -24 c6 -23 -16 -45 -38 -36 -15 5 -21 37 -8 49 13 14 41 6
46 -13z"/>
<path d="M701 256 c-7 -8 -8 -17 -3 -20 5 -3 7 -17 4 -31 -2 -14 0 -25 4 -25
5 0 10 20 11 45 2 50 1 51 -16 31z"/>
<path d="M212 220 c-1 -39 0 -40 34 -40 19 0 34 5 34 11 0 6 -9 9 -20 6 -11
-3 -23 -1 -26 4 -3 5 4 9 15 9 11 0 23 5 26 10 4 6 -6 10 -22 10 -24 1 -25 2
-10 11 9 5 22 7 27 4 6 -3 10 -1 10 4 0 6 -15 11 -34 11 -33 0 -34 -1 -34 -40z"/>
<path d="M742 248 c-7 -7 -12 -25 -12 -41 0 -24 4 -28 23 -25 16 2 22 10 22
28 0 16 -5 24 -14 22 -12 -3 -12 0 -1 12 15 19 0 22 -18 4z m26 -40 c-6 -18
-28 -21 -28 -4 0 9 7 16 16 16 9 0 14 -5 12 -12z"/>
<path d="M360 125 c0 -22 2 -24 14 -13 10 10 11 15 2 21 -7 5 -3 7 9 4 11 -2
19 -9 18 -15 -2 -7 2 -12 8 -12 6 0 9 7 5 15 -3 8 -1 15 4 15 5 0 11 -10 13
-22 4 -20 4 -19 6 5 1 25 -2 27 -39 27 -36 0 -40 -2 -40 -25z"/>
<path d="M461 131 c-16 -29 -13 -38 5 -15 8 10 13 13 9 7 -3 -7 -1 -13 4 -13
14 0 14 27 2 35 -6 3 -15 -3 -20 -14z"/>
<path d="M500 126 c0 -31 6 -34 13 -6 3 11 1 23 -4 26 -5 3 -9 -6 -9 -20z"/>
<path d="M543 136 c-25 -12 -29 -21 -13 -31 6 -3 10 -1 10 6 0 9 4 8 15 -1 8
-6 20 -10 27 -7 8 4 7 6 -4 6 -23 1 -23 28 0 34 11 3 12 5 2 5 -8 0 -25 -5
-37 -12z"/>
<path d="M600 125 c0 -20 5 -25 23 -24 19 1 19 2 3 6 -15 4 -16 7 -5 14 12 7
12 9 -1 9 -13 0 -13 1 0 10 13 8 12 10 -2 10 -13 0 -18 -8 -18 -25z"/>
</g>
</svg>
